<mxfile host="app.diagrams.net" modified="2021-06-27T08:21:51.725Z" agent="5.0 (Windows)" etag="XEFDgmeNl5k2aDI8YaAp" version="13.6.6" type="github">
  <diagram id="TLkPJLO_rXAb08wiplHC" name="Page-1">
    <mxGraphModel dx="868" dy="479" grid="1" gridSize="10" guides="1" tooltips="1" connect="1" arrows="1" fold="1" page="1" pageScale="1" pageWidth="850" pageHeight="1100" math="0" shadow="0">
      <root>
        <mxCell id="0" />
        <mxCell id="1" parent="0" />
        <mxCell id="zqdL3mXMzOdSn-6w6TH0-20" value="" style="shape=filledEdge;rounded=0;fixDash=1;endArrow=none;strokeWidth=10;fillColor=#ffffff;edgeStyle=orthogonalEdgeStyle;" parent="1" edge="1">
          <mxGeometry width="60" height="40" relative="1" as="geometry">
            <mxPoint x="400.3448275862069" y="245.08771929824556" as="sourcePoint" />
            <mxPoint x="722.183908045977" y="297.719298245614" as="targetPoint" />
          </mxGeometry>
        </mxCell>
        <mxCell id="y8CLTdTPDZlZgqFttJll-5" value="&lt;div&gt;Central &lt;br&gt;&lt;/div&gt;&lt;div&gt;Node&lt;/div&gt;" style="rounded=1;html=1;fillColor=#f8cecc;strokeColor=#b85450;fontFamily=Verdana;fontSize=12;" parent="1" vertex="1">
          <mxGeometry x="290" y="288.9473684210526" width="73.5632183908046" height="45.6140350877193" as="geometry" />
        </mxCell>
        <mxCell id="zqdL3mXMzOdSn-6w6TH0-2" value="" style="shape=cylinder2;html=1;boundedLbl=1;backgroundOutline=1;size=15;fillColor=#fff2cc;strokeColor=#d6b656;" parent="1" vertex="1">
          <mxGeometry x="492.2988505747127" y="115.26315789473682" width="73.5632183908046" height="87.71929824561403" as="geometry" />
        </mxCell>
        <mxCell id="zqdL3mXMzOdSn-6w6TH0-3" value="" style="shape=cylinder2;html=1;boundedLbl=1;backgroundOutline=1;size=15;fillColor=#fff2cc;strokeColor=#d6b656;" parent="1" vertex="1">
          <mxGeometry x="679.8850574712644" y="115.26315789473682" width="73.5632183908046" height="87.71929824561403" as="geometry" />
        </mxCell>
        <mxCell id="zqdL3mXMzOdSn-6w6TH0-4" value="" style="shape=cylinder2;html=1;boundedLbl=1;backgroundOutline=1;size=15;fillColor=#fff2cc;strokeColor=#d6b656;" parent="1" vertex="1">
          <mxGeometry x="584.2528735632184" y="115.26315789473682" width="69.88505747126437" height="87.71929824561403" as="geometry" />
        </mxCell>
        <mxCell id="zqdL3mXMzOdSn-6w6TH0-6" value="" style="shape=filledEdge;rounded=0;fixDash=1;endArrow=none;strokeWidth=10;fillColor=#ffffff;edgeStyle=orthogonalEdgeStyle;" parent="1" edge="1">
          <mxGeometry width="60" height="40" relative="1" as="geometry">
            <mxPoint x="551.1494252873563" y="45.08771929824561" as="sourcePoint" />
            <mxPoint x="440.8045977011494" y="238.07017543859644" as="targetPoint" />
          </mxGeometry>
        </mxCell>
        <mxCell id="zqdL3mXMzOdSn-6w6TH0-11" value="" style="shape=filledEdge;rounded=0;fixDash=1;endArrow=none;strokeWidth=10;fillColor=#ffffff;edgeStyle=orthogonalEdgeStyle;" parent="1" edge="1">
          <mxGeometry width="60" height="40" relative="1" as="geometry">
            <mxPoint x="455.51724137931035" y="45.08771929824561" as="sourcePoint" />
            <mxPoint x="712.9885057471265" y="97.71929824561403" as="targetPoint" />
          </mxGeometry>
        </mxCell>
        <mxCell id="zqdL3mXMzOdSn-6w6TH0-16" value="" style="shape=filledEdge;rounded=0;fixDash=1;endArrow=none;strokeWidth=10;fillColor=#ffffff;" parent="1" edge="1">
          <mxGeometry width="60" height="40" relative="1" as="geometry">
            <mxPoint x="523.5632183908046" y="99.4736842105263" as="sourcePoint" />
            <mxPoint x="523.5632183908046" y="52.10526315789473" as="targetPoint" />
          </mxGeometry>
        </mxCell>
        <mxCell id="zqdL3mXMzOdSn-6w6TH0-18" value="" style="shape=filledEdge;rounded=0;fixDash=1;endArrow=none;strokeWidth=10;fillColor=#ffffff;" parent="1" edge="1">
          <mxGeometry width="60" height="40" relative="1" as="geometry">
            <mxPoint x="621.0344827586207" y="99.4736842105263" as="sourcePoint" />
            <mxPoint x="621.0344827586207" y="52.10526315789473" as="targetPoint" />
          </mxGeometry>
        </mxCell>
        <mxCell id="zqdL3mXMzOdSn-6w6TH0-21" value="" style="shape=filledEdge;rounded=0;fixDash=1;endArrow=none;strokeWidth=10;fillColor=#ffffff;" parent="1" edge="1">
          <mxGeometry width="60" height="40" relative="1" as="geometry">
            <mxPoint x="560.3448275862069" y="299.47368421052624" as="sourcePoint" />
            <mxPoint x="560.3448275862069" y="252.10526315789468" as="targetPoint" />
          </mxGeometry>
        </mxCell>
        <mxCell id="zqdL3mXMzOdSn-6w6TH0-23" value="" style="shape=filledEdge;rounded=0;fixDash=1;endArrow=none;strokeWidth=10;fillColor=#ffffff;" parent="1" edge="1">
          <mxGeometry width="60" height="40" relative="1" as="geometry">
            <mxPoint x="648.6206896551724" y="299.47368421052624" as="sourcePoint" />
            <mxPoint x="648.6206896551724" y="252.10526315789468" as="targetPoint" />
          </mxGeometry>
        </mxCell>
        <mxCell id="zqdL3mXMzOdSn-6w6TH0-25" value="" style="shape=cylinder2;html=1;boundedLbl=1;backgroundOutline=1;size=15;fillColor=#dae8fc;strokeColor=#6c8ebf;" parent="1" vertex="1">
          <mxGeometry x="510.68965517241384" y="304.7368421052631" width="73.5632183908046" height="105.26315789473682" as="geometry" />
        </mxCell>
        <mxCell id="zqdL3mXMzOdSn-6w6TH0-26" value="" style="shape=cylinder2;html=1;boundedLbl=1;backgroundOutline=1;size=15;fillColor=#dae8fc;strokeColor=#6c8ebf;" parent="1" vertex="1">
          <mxGeometry x="696.4367816091954" y="304.7368421052631" width="73.5632183908046" height="105.26315789473682" as="geometry" />
        </mxCell>
        <mxCell id="zqdL3mXMzOdSn-6w6TH0-27" value="" style="shape=cylinder2;html=1;boundedLbl=1;backgroundOutline=1;size=15;fillColor=#dae8fc;strokeColor=#6c8ebf;" parent="1" vertex="1">
          <mxGeometry x="602.6436781609195" y="304.7368421052631" width="69.88505747126437" height="105.26315789473682" as="geometry" />
        </mxCell>
        <mxCell id="zqdL3mXMzOdSn-6w6TH0-28" value="&lt;div&gt;Water Pump &lt;br&gt;&lt;/div&gt;&lt;div&gt;Control Switch&lt;/div&gt;" style="rounded=1;html=1;fillColor=#f8cecc;strokeColor=#b85450;fontFamily=Verdana;fontSize=12;" parent="1" vertex="1">
          <mxGeometry x="290" y="357.36842105263156" width="147.1264367816092" height="52.63157894736841" as="geometry" />
        </mxCell>
        <mxCell id="zqdL3mXMzOdSn-6w6TH0-55" style="edgeStyle=none;rounded=1;orthogonalLoop=1;jettySize=auto;html=1;exitX=0.5;exitY=1;exitDx=0;exitDy=0;fontSize=8;entryX=0.25;entryY=0;entryDx=0;entryDy=0;" parent="1" source="y8CLTdTPDZlZgqFttJll-5" target="zqdL3mXMzOdSn-6w6TH0-28" edge="1">
          <mxGeometry relative="1" as="geometry" />
        </mxCell>
        <mxCell id="zqdL3mXMzOdSn-6w6TH0-30" value="&lt;div&gt;Remote &lt;br&gt;&lt;/div&gt;&lt;div&gt;Node 1&lt;/div&gt;" style="rounded=1;html=1;fillColor=#f8cecc;strokeColor=#b85450;fontFamily=Verdana;fontSize=12;" parent="1" vertex="1">
          <mxGeometry x="546.551724137931" y="10" width="73.5632183908046" height="35.08771929824561" as="geometry" />
        </mxCell>
        <mxCell id="zqdL3mXMzOdSn-6w6TH0-46" style="edgeStyle=none;orthogonalLoop=1;jettySize=auto;html=1;fontSize=8;rounded=1;entryX=0;entryY=0.5;entryDx=0;entryDy=0;" parent="1" target="zqdL3mXMzOdSn-6w6TH0-48" edge="1">
          <mxGeometry relative="1" as="geometry">
            <mxPoint x="620.1149425287356" y="71.15288220551373" as="targetPoint" />
            <mxPoint x="564.9425287356322" y="45.08771929824561" as="sourcePoint" />
            <Array as="points">
              <mxPoint x="564.9425287356322" y="71.40350877192982" />
            </Array>
          </mxGeometry>
        </mxCell>
        <mxCell id="zqdL3mXMzOdSn-6w6TH0-31" value="" style="shape=sumEllipse;perimeter=ellipsePerimeter;html=1;backgroundOutline=1;fontSize=8;" parent="1" vertex="1">
          <mxGeometry x="513.448275862069" y="62.63157894736841" width="18.39080459770115" height="17.543859649122805" as="geometry" />
        </mxCell>
        <mxCell id="zqdL3mXMzOdSn-6w6TH0-33" value="" style="shape=sumEllipse;perimeter=ellipsePerimeter;html=1;backgroundOutline=1;fontSize=8;" parent="1" vertex="1">
          <mxGeometry x="551.1494252873563" y="253.85964912280699" width="18.39080459770115" height="17.543859649122805" as="geometry" />
        </mxCell>
        <mxCell id="zqdL3mXMzOdSn-6w6TH0-36" value="" style="shape=filledEdge;rounded=1;fixDash=1;endArrow=none;strokeWidth=10;fillColor=#ffffff;entryX=0.57;entryY=-0.057;entryDx=0;entryDy=0;entryPerimeter=0;" parent="1" target="zqdL3mXMzOdSn-6w6TH0-28" edge="1">
          <mxGeometry width="60" height="40" relative="1" as="geometry">
            <mxPoint x="420.57471264367814" y="245.08771929824556" as="sourcePoint" />
            <mxPoint x="374.5977011494253" y="343.33333333333326" as="targetPoint" />
            <Array as="points">
              <mxPoint x="374.5977011494253" y="245.08771929824556" />
              <mxPoint x="374.5977011494253" y="259.1228070175438" />
            </Array>
          </mxGeometry>
        </mxCell>
        <mxCell id="zqdL3mXMzOdSn-6w6TH0-38" value="" style="shape=sumEllipse;perimeter=ellipsePerimeter;html=1;backgroundOutline=1;fontSize=8;" parent="1" vertex="1">
          <mxGeometry x="639.4252873563219" y="262.63157894736844" width="18.39080459770115" height="17.543859649122805" as="geometry" />
        </mxCell>
        <mxCell id="zqdL3mXMzOdSn-6w6TH0-43" value="" style="shape=sumEllipse;perimeter=ellipsePerimeter;html=1;backgroundOutline=1;fontSize=8;" parent="1" vertex="1">
          <mxGeometry x="712.9885057471265" y="253.85964912280699" width="18.39080459770115" height="17.543859649122805" as="geometry" />
        </mxCell>
        <mxCell id="zqdL3mXMzOdSn-6w6TH0-44" value="" style="edgeStyle=segmentEdgeStyle;endArrow=classic;html=1;fontSize=8;" parent="1" edge="1">
          <mxGeometry width="50" height="50" relative="1" as="geometry">
            <mxPoint x="547.471264367816" y="27.543859649122805" as="sourcePoint" />
            <mxPoint x="521.7241379310344" y="62.63157894736841" as="targetPoint" />
            <Array as="points">
              <mxPoint x="521.7241379310344" y="27.543859649122805" />
            </Array>
          </mxGeometry>
        </mxCell>
        <mxCell id="zqdL3mXMzOdSn-6w6TH0-47" value="" style="edgeStyle=segmentEdgeStyle;endArrow=classic;html=1;fontSize=8;exitX=1;exitY=0.5;exitDx=0;exitDy=0;" parent="1" source="zqdL3mXMzOdSn-6w6TH0-30" edge="1">
          <mxGeometry width="50" height="50" relative="1" as="geometry">
            <mxPoint x="649.5402298850574" y="25.736842105263154" as="sourcePoint" />
            <mxPoint x="712.0689655172414" y="60.87719298245613" as="targetPoint" />
            <Array as="points">
              <mxPoint x="623.7931034482758" y="25.789473684210527" />
              <mxPoint x="712.0689655172414" y="25.789473684210527" />
            </Array>
          </mxGeometry>
        </mxCell>
        <mxCell id="zqdL3mXMzOdSn-6w6TH0-48" value="" style="shape=sumEllipse;perimeter=ellipsePerimeter;html=1;backgroundOutline=1;fontSize=8;" parent="1" vertex="1">
          <mxGeometry x="610.9195402298851" y="64.38596491228068" width="18.39080459770115" height="17.543859649122805" as="geometry" />
        </mxCell>
        <mxCell id="zqdL3mXMzOdSn-6w6TH0-49" value="" style="shape=sumEllipse;perimeter=ellipsePerimeter;html=1;backgroundOutline=1;fontSize=8;" parent="1" vertex="1">
          <mxGeometry x="702.8735632183908" y="62.63157894736841" width="18.39080459770115" height="17.543859649122805" as="geometry" />
        </mxCell>
        <mxCell id="zqdL3mXMzOdSn-6w6TH0-54" style="edgeStyle=none;rounded=1;orthogonalLoop=1;jettySize=auto;html=1;exitX=0.5;exitY=1;exitDx=0;exitDy=0;fontSize=8;" parent="1" source="zqdL3mXMzOdSn-6w6TH0-51" edge="1">
          <mxGeometry relative="1" as="geometry">
            <mxPoint x="639.4252873563219" y="271.4035087719298" as="targetPoint" />
            <Array as="points">
              <mxPoint x="615.5172413793103" y="255.6140350877193" />
              <mxPoint x="615.5172413793103" y="271.4035087719298" />
            </Array>
          </mxGeometry>
        </mxCell>
        <mxCell id="zqdL3mXMzOdSn-6w6TH0-51" value="&lt;div&gt;Remote&lt;/div&gt;&lt;div&gt;Node 2&lt;/div&gt;" style="rounded=1;html=1;fillColor=#f8cecc;strokeColor=#b85450;fontFamily=Verdana;fontSize=12;" parent="1" vertex="1">
          <mxGeometry x="578.2758620689656" y="206.49122807017537" width="73.5632183908046" height="35.08771929824561" as="geometry" />
        </mxCell>
        <mxCell id="zqdL3mXMzOdSn-6w6TH0-52" value="" style="edgeStyle=segmentEdgeStyle;endArrow=classic;html=1;fontSize=8;" parent="1" edge="1">
          <mxGeometry width="50" height="50" relative="1" as="geometry">
            <mxPoint x="584.2528735632184" y="220.52631578947364" as="sourcePoint" />
            <mxPoint x="558.5057471264367" y="255.6140350877193" as="targetPoint" />
            <Array as="points">
              <mxPoint x="558.5057471264367" y="220.52631578947364" />
            </Array>
          </mxGeometry>
        </mxCell>
        <mxCell id="zqdL3mXMzOdSn-6w6TH0-53" value="" style="edgeStyle=segmentEdgeStyle;endArrow=classic;html=1;fontSize=8;exitX=1;exitY=0.5;exitDx=0;exitDy=0;entryX=0.5;entryY=0;entryDx=0;entryDy=0;" parent="1" source="zqdL3mXMzOdSn-6w6TH0-51" target="zqdL3mXMzOdSn-6w6TH0-43" edge="1">
          <mxGeometry width="50" height="50" relative="1" as="geometry">
            <mxPoint x="681.264367816092" y="234.50877192982452" as="sourcePoint" />
            <mxPoint x="731.3793103448277" y="269.64912280701753" as="targetPoint" />
            <Array as="points">
              <mxPoint x="722.183908045977" y="224.03508771929825" />
            </Array>
          </mxGeometry>
        </mxCell>
      </root>
    </mxGraphModel>
  </diagram>
</mxfile>
